<svg width="1281" height="300" viewBox="0 0 1281 300" fill="none" xmlns="http://www.w3.org/2000/svg">
<circle cx="150" cy="150" r="141" transform="matrix(1 0 0 -1 0 300)" stroke="#3A5ADB" stroke-width="18"/>
<path d="M180 170C175.535 183.97 164.313 195.14 150 200M150 230C116.917 230 90 204.649 90 173.489C90 130 150.001 70 150.001 70C150.001 70 210 130 210 173.489C210 204.65 183.084 230 150 230Z" stroke="#040948" stroke-width="23" stroke-linecap="round" stroke-linejoin="round"/>
<path d="M405.813 271.861C397.826 271.861 390.361 270.704 383.417 268.389C376.472 266.074 370.396 262.891 365.188 258.84L371.438 233.146C375.025 238.123 379.771 242.174 385.674 245.299C391.576 248.539 398.289 250.16 405.813 250.16C416.924 250.16 425.778 246.861 432.375 240.264C438.972 233.782 442.271 225.333 442.271 214.917V205.021C437.988 209.419 432.896 212.891 426.993 215.437C421.09 217.868 414.667 219.083 407.722 219.083C398.231 219.083 389.551 216.653 381.681 211.792C373.81 206.931 367.502 200.391 362.757 192.174C358.127 183.956 355.812 174.87 355.812 164.917C355.812 154.963 358.127 145.877 362.757 137.66C367.502 129.442 373.81 122.903 381.681 118.042C389.551 113.181 398.231 110.75 407.722 110.75C414.667 110.75 421.09 112.023 426.993 114.569C433.012 117 438.162 120.472 442.444 124.986V112.833H464.146V217.694C464.146 229.037 461.426 238.759 455.986 246.861C450.662 254.963 443.544 261.155 434.632 265.438C425.72 269.72 416.113 271.861 405.813 271.861ZM410.847 197.208C416.634 197.208 421.9 195.762 426.646 192.868C431.507 189.975 435.326 186.097 438.104 181.236C440.998 176.375 442.444 170.935 442.444 164.917C442.444 159.014 440.998 153.632 438.104 148.771C435.326 143.794 431.565 139.859 426.819 136.965C422.074 134.072 416.75 132.625 410.847 132.625C405.06 132.625 399.736 134.072 394.875 136.965C390.13 139.859 386.31 143.736 383.417 148.597C380.639 153.458 379.25 158.898 379.25 164.917C379.25 170.819 380.639 176.259 383.417 181.236C386.31 186.097 390.13 189.975 394.875 192.868C399.62 195.762 404.944 197.208 410.847 197.208ZM711.699 217V50.3333H736.178V217H711.699ZM757.212 217V60.75H803.566C813.752 60.75 821.853 62.7755 827.872 66.8264C833.89 70.7616 838.173 75.5648 840.719 81.2361C843.381 86.7917 844.712 92.0579 844.712 97.0347C844.712 102.127 843.613 106.873 841.414 111.271C839.33 115.553 836.379 119.199 832.559 122.208C840.43 126.375 846.738 132.22 851.483 139.743C856.344 147.266 858.775 155.773 858.775 165.264C858.775 173.829 856.634 182.104 852.351 190.09C848.184 197.961 841.877 204.442 833.428 209.535C825.094 214.512 814.793 217 802.525 217H757.212ZM782.212 194.083H800.268C808.022 194.083 814.215 192.579 818.844 189.569C823.59 186.444 827.062 182.625 829.261 178.111C831.46 173.481 832.559 168.91 832.559 164.396C832.559 159.998 831.518 155.484 829.434 150.854C827.351 146.225 823.937 142.405 819.191 139.396C814.562 136.271 808.254 134.708 800.268 134.708H782.212V194.083ZM782.212 115.438H800.094C806.228 115.438 811.205 113.991 815.025 111.097C818.844 108.088 820.754 103.863 820.754 98.4236C820.754 92.7523 818.902 88.4699 815.198 85.5764C811.495 82.5671 806.691 81.0625 800.789 81.0625H782.212V115.438ZM1101.47 217V112.833H1123.69V131.236C1127.39 125.218 1132.14 120.472 1137.93 117C1143.71 113.528 1150.6 111.792 1158.58 111.792L1164.14 134.535C1161.94 133.84 1159.45 133.493 1156.68 133.493C1147.42 133.493 1139.95 136.444 1134.28 142.347C1128.72 148.25 1125.95 156.699 1125.95 167.694V217H1101.47ZM1210.48 219.083C1200.88 219.083 1192.14 216.653 1184.27 211.792C1176.4 206.931 1170.09 200.391 1165.34 192.174C1160.72 183.956 1158.4 174.87 1158.4 164.917C1158.4 154.963 1160.72 145.877 1165.34 137.66C1170.09 129.442 1176.4 122.903 1184.27 118.042C1192.14 113.181 1200.88 110.75 1210.48 110.75C1216.62 110.75 1222.35 111.792 1227.67 113.875C1233.11 115.843 1237.97 118.62 1242.25 122.208V50.3333H1266.73V217H1245.03V205.021C1240.75 209.419 1235.6 212.891 1229.58 215.437C1223.68 217.868 1217.31 219.083 1210.48 219.083ZM1213.44 197.208C1219.22 197.208 1224.49 195.762 1229.23 192.868C1234.09 189.975 1237.91 186.097 1240.69 181.236C1243.59 176.375 1245.03 170.935 1245.03 164.917C1245.03 159.014 1243.59 153.632 1240.69 148.771C1237.91 143.794 1234.15 139.859 1229.41 136.965C1224.66 134.072 1219.34 132.625 1213.44 132.625C1207.65 132.625 1202.32 134.072 1197.46 136.965C1192.72 139.859 1188.9 143.736 1186 148.597C1183.23 153.458 1181.84 158.898 1181.84 164.917C1181.84 170.819 1183.23 176.259 1186 181.236C1188.9 186.097 1192.72 189.975 1197.46 192.868C1202.21 195.762 1207.53 197.208 1213.44 197.208Z" fill="#3A5ADB"/>
<path d="M528.995 219.778C518.81 219.778 509.493 217.347 501.044 212.486C492.595 207.509 485.882 200.854 480.905 192.521C475.928 184.187 473.439 174.986 473.439 164.917C473.439 154.731 475.928 145.53 480.905 137.313C485.882 128.979 492.595 122.382 501.044 117.521C509.493 112.544 518.81 110.056 528.995 110.056C539.296 110.056 548.613 112.544 556.946 117.521C565.395 122.382 572.108 128.979 577.085 137.313C582.062 145.53 584.551 154.731 584.551 164.917C584.551 174.986 582.062 184.187 577.085 192.521C572.108 200.854 565.395 207.509 556.946 212.486C548.613 217.347 539.296 219.778 528.995 219.778ZM528.995 197.382C534.898 197.382 540.28 195.935 545.141 193.042C550.002 190.032 553.821 186.097 556.599 181.236C559.493 176.375 560.939 170.935 560.939 164.917C560.939 158.898 559.493 153.458 556.599 148.597C553.821 143.736 550.002 139.859 545.141 136.965C540.28 133.956 534.898 132.451 528.995 132.451C523.092 132.451 517.71 133.956 512.849 136.965C507.988 139.859 504.111 143.736 501.217 148.597C498.439 153.458 497.051 158.898 497.051 164.917C497.051 170.935 498.439 176.375 501.217 181.236C504.111 186.097 507.93 190.032 512.676 193.042C517.537 195.935 522.976 197.382 528.995 197.382ZM639.558 219.083C630.067 219.083 621.387 216.653 613.516 211.792C605.646 206.931 599.338 200.391 594.593 192.174C589.963 183.956 587.648 174.87 587.648 164.917C587.648 154.963 589.963 145.877 594.593 137.66C599.338 129.442 605.646 122.903 613.516 118.042C621.387 113.181 630.067 110.75 639.558 110.75C646.503 110.75 652.926 112.023 658.829 114.569C664.848 117 669.998 120.472 674.28 124.986V112.833H695.982V217H674.28V204.847C669.998 209.245 664.848 212.718 658.829 215.264C652.926 217.81 646.503 219.083 639.558 219.083ZM642.683 197.208C648.47 197.208 653.736 195.762 658.482 192.868C663.343 189.975 667.162 186.097 669.94 181.236C672.834 176.375 674.28 170.935 674.28 164.917C674.28 159.014 672.834 153.632 669.94 148.771C667.162 143.794 663.401 139.859 658.655 136.965C653.91 134.072 648.586 132.625 642.683 132.625C636.896 132.625 631.572 134.072 626.711 136.965C621.966 139.859 618.146 143.736 615.253 148.597C612.475 153.458 611.086 158.898 611.086 164.917C611.086 170.819 612.475 176.259 615.253 181.236C618.146 186.097 621.966 189.975 626.711 192.868C631.456 195.762 636.78 197.208 642.683 197.208ZM918.936 219.778C908.751 219.778 899.434 217.347 890.985 212.486C882.536 207.509 875.823 200.854 870.846 192.521C865.869 184.187 863.381 174.986 863.381 164.917C863.381 154.731 865.869 145.53 870.846 137.313C875.823 128.979 882.536 122.382 890.985 117.521C899.434 112.544 908.751 110.056 918.936 110.056C929.237 110.056 938.554 112.544 946.888 117.521C955.337 122.382 962.05 128.979 967.027 137.313C972.004 145.53 974.492 154.731 974.492 164.917C974.492 174.986 972.004 184.187 967.027 192.521C962.05 200.854 955.337 207.509 946.888 212.486C938.554 217.347 929.237 219.778 918.936 219.778ZM918.936 197.382C924.839 197.382 930.221 195.935 935.082 193.042C939.943 190.032 943.763 186.097 946.541 181.236C949.434 176.375 950.881 170.935 950.881 164.917C950.881 158.898 949.434 153.458 946.541 148.597C943.763 143.736 939.943 139.859 935.082 136.965C930.221 133.956 924.839 132.451 918.936 132.451C913.034 132.451 907.652 133.956 902.791 136.965C897.929 139.859 894.052 143.736 891.159 148.597C888.381 153.458 886.992 158.898 886.992 164.917C886.992 170.935 888.381 176.375 891.159 181.236C894.052 186.097 897.872 190.032 902.617 193.042C907.478 195.935 912.918 197.382 918.936 197.382ZM1029.5 219.083C1020.01 219.083 1011.33 216.653 1003.46 211.792C995.588 206.931 989.28 200.391 984.534 192.174C979.905 183.956 977.59 174.87 977.59 164.917C977.59 154.963 979.905 145.877 984.534 137.66C989.28 129.442 995.588 122.903 1003.46 118.042C1011.33 113.181 1020.01 110.75 1029.5 110.75C1036.44 110.75 1042.87 112.023 1048.77 114.569C1054.79 117 1059.94 120.472 1064.22 124.986V112.833H1085.92V217H1064.22V204.847C1059.94 209.245 1054.79 212.718 1048.77 215.264C1042.87 217.81 1036.44 219.083 1029.5 219.083ZM1032.62 197.208C1038.41 197.208 1043.68 195.762 1048.42 192.868C1053.28 189.975 1057.1 186.097 1059.88 181.236C1062.78 176.375 1064.22 170.935 1064.22 164.917C1064.22 159.014 1062.78 153.632 1059.88 148.771C1057.1 143.794 1053.34 139.859 1048.6 136.965C1043.85 134.072 1038.53 132.625 1032.62 132.625C1026.84 132.625 1021.51 134.072 1016.65 136.965C1011.91 139.859 1008.09 143.736 1005.19 148.597C1002.42 153.458 1001.03 158.898 1001.03 164.917C1001.03 170.819 1002.42 176.259 1005.19 181.236C1008.09 186.097 1011.91 189.975 1016.65 192.868C1021.4 195.762 1026.72 197.208 1032.62 197.208Z" fill="#040948"/>
</svg>
