<svg width="912" height="222" viewBox="0 0 912 222" fill="none" xmlns="http://www.w3.org/2000/svg">
<path d="M50.8125 221.861C42.8264 221.861 35.3611 220.704 28.4167 218.389C21.4722 216.074 15.3958 212.891 10.1875 208.84L16.4375 183.146C20.0255 188.123 24.7708 192.174 30.6736 195.299C36.5764 198.539 43.2894 200.16 50.8125 200.16C61.9236 200.16 70.7778 196.861 77.375 190.264C83.9722 183.782 87.2708 175.333 87.2708 164.917V155.021C82.9884 159.419 77.8958 162.891 71.9931 165.437C66.0903 167.868 59.6667 169.083 52.7222 169.083C43.2315 169.083 34.5509 166.653 26.6806 161.792C18.8102 156.931 12.5023 150.391 7.75694 142.174C3.12731 133.956 0.8125 124.87 0.8125 114.917C0.8125 104.963 3.12731 95.8773 7.75694 87.6597C12.5023 79.4421 18.8102 72.9028 26.6806 68.0417C34.5509 63.1806 43.2315 60.75 52.7222 60.75C59.6667 60.75 66.0903 62.0231 71.9931 64.5694C78.0116 67 83.162 70.4722 87.4444 74.9861V62.8333H109.146V167.694C109.146 179.037 106.426 188.759 100.986 196.861C95.662 204.963 88.544 211.155 79.6319 215.438C70.7199 219.72 61.1134 221.861 50.8125 221.861ZM55.8472 147.208C61.6343 147.208 66.9005 145.762 71.6458 142.868C76.5069 139.975 80.3264 136.097 83.1042 131.236C85.9977 126.375 87.4444 120.935 87.4444 114.917C87.4444 109.014 85.9977 103.632 83.1042 98.7708C80.3264 93.794 76.5648 89.8588 71.8194 86.9653C67.0741 84.0718 61.75 82.625 55.8472 82.625C50.0602 82.625 44.7361 84.0718 39.875 86.9653C35.1296 89.8588 31.3102 93.7361 28.4167 98.5972C25.6389 103.458 24.25 108.898 24.25 114.917C24.25 120.819 25.6389 126.259 28.4167 131.236C31.3102 136.097 35.1296 139.975 39.875 142.868C44.6204 145.762 49.9444 147.208 55.8472 147.208ZM356.699 167V0.333328H381.178V167H356.699ZM402.212 167V10.75H448.566C458.752 10.75 466.853 12.7755 472.872 16.8264C478.89 20.7616 483.173 25.5648 485.719 31.2361C488.381 36.7917 489.712 42.0579 489.712 47.0347C489.712 52.1273 488.613 56.8727 486.414 61.2708C484.33 65.5532 481.379 69.1991 477.559 72.2083C485.43 76.375 491.738 82.2199 496.483 89.7431C501.344 97.2662 503.775 105.773 503.775 115.264C503.775 123.829 501.634 132.104 497.351 140.09C493.184 147.961 486.877 154.442 478.428 159.535C470.094 164.512 459.793 167 447.525 167H402.212ZM427.212 144.083H445.268C453.022 144.083 459.215 142.579 463.844 139.569C468.59 136.444 472.062 132.625 474.261 128.111C476.46 123.481 477.559 118.91 477.559 114.396C477.559 109.998 476.518 105.484 474.434 100.854C472.351 96.2245 468.937 92.4051 464.191 89.3958C459.562 86.2708 453.254 84.7083 445.268 84.7083H427.212V144.083ZM427.212 65.4375H445.094C451.228 65.4375 456.205 63.9907 460.025 61.0972C463.844 58.088 465.754 53.8634 465.754 48.4236C465.754 42.7523 463.902 38.4699 460.198 35.5764C456.495 32.5671 451.691 31.0625 445.789 31.0625H427.212V65.4375ZM746.467 167V62.8333H768.689V81.2361C772.393 75.2176 777.138 70.4722 782.925 67C788.712 63.5278 795.599 61.7917 803.585 61.7917L809.14 84.5347C806.941 83.8403 804.453 83.4931 801.675 83.4931C792.416 83.4931 784.951 86.4444 779.279 92.3472C773.724 98.25 770.946 106.699 770.946 117.694V167H746.467ZM855.484 169.083C845.877 169.083 837.139 166.653 829.268 161.792C821.398 156.931 815.09 150.391 810.345 142.174C805.715 133.956 803.4 124.87 803.4 114.917C803.4 104.963 805.715 95.8773 810.345 87.6597C815.09 79.4421 821.398 72.9028 829.268 68.0417C837.139 63.1806 845.877 60.75 855.484 60.75C861.618 60.75 867.347 61.7917 872.671 63.875C878.111 65.8426 882.972 68.6204 887.255 72.2083V0.333328H911.734V167H890.032V155.021C885.75 159.419 880.599 162.891 874.581 165.437C868.678 167.868 862.312 169.083 855.484 169.083ZM858.435 147.208C864.222 147.208 869.488 145.762 874.234 142.868C879.095 139.975 882.914 136.097 885.692 131.236C888.586 126.375 890.032 120.935 890.032 114.917C890.032 109.014 888.586 103.632 885.692 98.7708C882.914 93.794 879.153 89.8588 874.407 86.9653C869.662 84.0718 864.338 82.625 858.435 82.625C852.648 82.625 847.324 84.0718 842.463 86.9653C837.718 89.8588 833.898 93.7361 831.005 98.5972C828.227 103.458 826.838 108.898 826.838 114.917C826.838 120.819 828.227 126.259 831.005 131.236C833.898 136.097 837.718 139.975 842.463 142.868C847.208 145.762 852.532 147.208 858.435 147.208Z" fill="#3A5ADB"/>
<path d="M173.995 169.778C163.81 169.778 154.493 167.347 146.044 162.486C137.595 157.509 130.882 150.854 125.905 142.521C120.928 134.187 118.439 124.986 118.439 114.917C118.439 104.731 120.928 95.5301 125.905 87.3125C130.882 78.9792 137.595 72.3819 146.044 67.5208C154.493 62.544 163.81 60.0556 173.995 60.0556C184.296 60.0556 193.613 62.544 201.946 67.5208C210.395 72.3819 217.108 78.9792 222.085 87.3125C227.062 95.5301 229.551 104.731 229.551 114.917C229.551 124.986 227.062 134.187 222.085 142.521C217.108 150.854 210.395 157.509 201.946 162.486C193.613 167.347 184.296 169.778 173.995 169.778ZM173.995 147.382C179.898 147.382 185.28 145.935 190.141 143.042C195.002 140.032 198.821 136.097 201.599 131.236C204.493 126.375 205.939 120.935 205.939 114.917C205.939 108.898 204.493 103.458 201.599 98.5972C198.821 93.7361 195.002 89.8588 190.141 86.9653C185.28 83.956 179.898 82.4514 173.995 82.4514C168.092 82.4514 162.71 83.956 157.849 86.9653C152.988 89.8588 149.111 93.7361 146.217 98.5972C143.439 103.458 142.051 108.898 142.051 114.917C142.051 120.935 143.439 126.375 146.217 131.236C149.111 136.097 152.93 140.032 157.676 143.042C162.537 145.935 167.976 147.382 173.995 147.382ZM284.558 169.083C275.067 169.083 266.387 166.653 258.516 161.792C250.646 156.931 244.338 150.391 239.593 142.174C234.963 133.956 232.648 124.87 232.648 114.917C232.648 104.963 234.963 95.8773 239.593 87.6597C244.338 79.4421 250.646 72.9028 258.516 68.0417C266.387 63.1806 275.067 60.75 284.558 60.75C291.503 60.75 297.926 62.0231 303.829 64.5694C309.848 67 314.998 70.4722 319.28 74.9861V62.8333H340.982V167H319.28V154.847C314.998 159.245 309.848 162.718 303.829 165.264C297.926 167.81 291.503 169.083 284.558 169.083ZM287.683 147.208C293.47 147.208 298.736 145.762 303.482 142.868C308.343 139.975 312.162 136.097 314.94 131.236C317.834 126.375 319.28 120.935 319.28 114.917C319.28 109.014 317.834 103.632 314.94 98.7708C312.162 93.794 308.401 89.8588 303.655 86.9653C298.91 84.0718 293.586 82.625 287.683 82.625C281.896 82.625 276.572 84.0718 271.711 86.9653C266.966 89.8588 263.146 93.7361 260.253 98.5972C257.475 103.458 256.086 108.898 256.086 114.917C256.086 120.819 257.475 126.259 260.253 131.236C263.146 136.097 266.966 139.975 271.711 142.868C276.456 145.762 281.78 147.208 287.683 147.208ZM563.936 169.778C553.751 169.778 544.434 167.347 535.985 162.486C527.536 157.509 520.823 150.854 515.846 142.521C510.869 134.187 508.381 124.986 508.381 114.917C508.381 104.731 510.869 95.5301 515.846 87.3125C520.823 78.9792 527.536 72.3819 535.985 67.5208C544.434 62.544 553.751 60.0556 563.936 60.0556C574.237 60.0556 583.554 62.544 591.888 67.5208C600.337 72.3819 607.05 78.9792 612.027 87.3125C617.004 95.5301 619.492 104.731 619.492 114.917C619.492 124.986 617.004 134.187 612.027 142.521C607.05 150.854 600.337 157.509 591.888 162.486C583.554 167.347 574.237 169.778 563.936 169.778ZM563.936 147.382C569.839 147.382 575.221 145.935 580.082 143.042C584.943 140.032 588.763 136.097 591.541 131.236C594.434 126.375 595.881 120.935 595.881 114.917C595.881 108.898 594.434 103.458 591.541 98.5972C588.763 93.7361 584.943 89.8588 580.082 86.9653C575.221 83.956 569.839 82.4514 563.936 82.4514C558.034 82.4514 552.652 83.956 547.791 86.9653C542.929 89.8588 539.052 93.7361 536.159 98.5972C533.381 103.458 531.992 108.898 531.992 114.917C531.992 120.935 533.381 126.375 536.159 131.236C539.052 136.097 542.872 140.032 547.617 143.042C552.478 145.935 557.918 147.382 563.936 147.382ZM674.5 169.083C665.009 169.083 656.328 166.653 648.458 161.792C640.588 156.931 634.28 150.391 629.534 142.174C624.905 133.956 622.59 124.87 622.59 114.917C622.59 104.963 624.905 95.8773 629.534 87.6597C634.28 79.4421 640.588 72.9028 648.458 68.0417C656.328 63.1806 665.009 60.75 674.5 60.75C681.444 60.75 687.868 62.0231 693.77 64.5694C699.789 67 704.939 70.4722 709.222 74.9861V62.8333H730.923V167H709.222V154.847C704.939 159.245 699.789 162.718 693.77 165.264C687.868 167.81 681.444 169.083 674.5 169.083ZM677.625 147.208C683.412 147.208 688.678 145.762 693.423 142.868C698.284 139.975 702.104 136.097 704.882 131.236C707.775 126.375 709.222 120.935 709.222 114.917C709.222 109.014 707.775 103.632 704.882 98.7708C702.104 93.794 698.342 89.8588 693.597 86.9653C688.851 84.0718 683.527 82.625 677.625 82.625C671.838 82.625 666.513 84.0718 661.652 86.9653C656.907 89.8588 653.088 93.7361 650.194 98.5972C647.416 103.458 646.027 108.898 646.027 114.917C646.027 120.819 647.416 126.259 650.194 131.236C653.088 136.097 656.907 139.975 661.652 142.868C666.398 145.762 671.722 147.208 677.625 147.208Z" fill="#F1F1F1"/>
</svg>
