<svg id="visual" viewBox="0 0 900 600" width="900" height="600" xmlns="http://www.w3.org/2000/svg" xmlns:xlink="http://www.w3.org/1999/xlink" version="1.1"><rect x="0" y="0" width="900" height="600" fill="#ffffff"></rect><defs><linearGradient id="grad1_0" x1="33.3%" y1="0%" x2="100%" y2="100%"><stop offset="20%" stop-color="#ffffff" stop-opacity="1"></stop><stop offset="80%" stop-color="#ffffff" stop-opacity="1"></stop></linearGradient></defs><defs><linearGradient id="grad2_0" x1="0%" y1="0%" x2="66.7%" y2="100%"><stop offset="20%" stop-color="#ffffff" stop-opacity="1"></stop><stop offset="80%" stop-color="#ffffff" stop-opacity="1"></stop></linearGradient></defs><g transform="translate(900, 0)"><path d="M0 486.7C-52.8 442.5 -105.7 398.2 -151.9 366.8C-198.2 335.4 -237.9 316.9 -292 292C-346.2 267.2 -414.8 236 -449.7 186.3C-484.6 136.5 -485.7 68.3 -486.7 0L0 0Z" fill="#3A5ADB"></path></g><g transform="translate(0, 600)"><path d="M0 -486.7C60.4 -468 120.8 -449.2 175.7 -424.1C230.5 -398.9 279.9 -367.3 328.1 -328.1C376.3 -288.9 423.4 -242.2 449.7 -186.3C476 -130.3 481.4 -65.2 486.7 0L0 0Z" fill="#3A5ADB"></path></g></svg>