<svg xmlns="http://www.w3.org/2000/svg" version="1.1" xmlns:xlink="http://www.w3.org/1999/xlink" xmlns:svgjs="http://svgjs.dev/svgjs" viewBox="0 0 800 800"><defs><radialGradient id="cccircular-grad" r="50%" cx="50%" cy="50%">
          <stop offset="50%" stop-color="#facc15" stop-opacity="0.5"></stop>
          <stop offset="100%" stop-color="#a16207" stop-opacity="0.5"></stop>
        </radialGradient></defs><g fill="url(#cccircular-grad)"><circle r="864" cx="400" cy="400" opacity="0.05"></circle><circle r="832" cx="400" cy="400" opacity="0.09"></circle><circle r="800" cx="400" cy="400" opacity="0.12"></circle><circle r="768" cx="400" cy="400" opacity="0.16"></circle><circle r="736" cx="400" cy="400" opacity="0.20"></circle><circle r="704" cx="400" cy="400" opacity="0.23"></circle><circle r="672" cx="400" cy="400" opacity="0.27"></circle><circle r="640" cx="400" cy="400" opacity="0.31"></circle><circle r="608" cx="400" cy="400" opacity="0.34"></circle><circle r="576" cx="400" cy="400" opacity="0.38"></circle><circle r="544" cx="400" cy="400" opacity="0.42"></circle><circle r="512" cx="400" cy="400" opacity="0.45"></circle><circle r="480" cx="400" cy="400" opacity="0.49"></circle><circle r="448" cx="400" cy="400" opacity="0.53"></circle><circle r="416" cx="400" cy="400" opacity="0.56"></circle><circle r="384" cx="400" cy="400" opacity="0.60"></circle><circle r="352" cx="400" cy="400" opacity="0.63"></circle><circle r="320" cx="400" cy="400" opacity="0.67"></circle><circle r="288" cx="400" cy="400" opacity="0.71"></circle><circle r="256" cx="400" cy="400" opacity="0.74"></circle><circle r="224" cx="400" cy="400" opacity="0.78"></circle><circle r="192" cx="400" cy="400" opacity="0.82"></circle><circle r="160" cx="400" cy="400" opacity="0.85"></circle><circle r="128" cx="400" cy="400" opacity="0.89"></circle><circle r="96" cx="400" cy="400" opacity="0.93"></circle><circle r="64" cx="400" cy="400" opacity="0.96"></circle></g></svg>