<svg id="visual" viewBox="0 0 960 540" width="960" height="540" xmlns="http://www.w3.org/2000/svg" xmlns:xlink="http://www.w3.org/1999/xlink" version="1.1"><rect x="0" y="0" width="960" height="540" fill="#ffffff"></rect><defs><linearGradient id="grad1_0" x1="43.8%" y1="0%" x2="100%" y2="100%"><stop offset="14.444444444444446%" stop-color="#fbae3c" stop-opacity="1"></stop><stop offset="85.55555555555554%" stop-color="#fbae3c" stop-opacity="1"></stop></linearGradient></defs><defs><linearGradient id="grad1_1" x1="43.8%" y1="0%" x2="100%" y2="100%"><stop offset="14.444444444444446%" stop-color="#fbae3c" stop-opacity="1"></stop><stop offset="85.55555555555554%" stop-color="#ffb95b" stop-opacity="1"></stop></linearGradient></defs><defs><linearGradient id="grad1_2" x1="43.8%" y1="0%" x2="100%" y2="100%"><stop offset="14.444444444444446%" stop-color="#ffc577" stop-opacity="1"></stop><stop offset="85.55555555555554%" stop-color="#ffb95b" stop-opacity="1"></stop></linearGradient></defs><defs><linearGradient id="grad1_3" x1="43.8%" y1="0%" x2="100%" y2="100%"><stop offset="14.444444444444446%" stop-color="#ffc577" stop-opacity="1"></stop><stop offset="85.55555555555554%" stop-color="#ffd092" stop-opacity="1"></stop></linearGradient></defs><defs><linearGradient id="grad1_4" x1="43.8%" y1="0%" x2="100%" y2="100%"><stop offset="14.444444444444446%" stop-color="#ffdcad" stop-opacity="1"></stop><stop offset="85.55555555555554%" stop-color="#ffd092" stop-opacity="1"></stop></linearGradient></defs><defs><linearGradient id="grad1_5" x1="43.8%" y1="0%" x2="100%" y2="100%"><stop offset="14.444444444444446%" stop-color="#ffdcad" stop-opacity="1"></stop><stop offset="85.55555555555554%" stop-color="#ffe7c8" stop-opacity="1"></stop></linearGradient></defs><defs><linearGradient id="grad1_6" x1="43.8%" y1="0%" x2="100%" y2="100%"><stop offset="14.444444444444446%" stop-color="#fff3e3" stop-opacity="1"></stop><stop offset="85.55555555555554%" stop-color="#ffe7c8" stop-opacity="1"></stop></linearGradient></defs><defs><linearGradient id="grad1_7" x1="43.8%" y1="0%" x2="100%" y2="100%"><stop offset="14.444444444444446%" stop-color="#fff3e3" stop-opacity="1"></stop><stop offset="85.55555555555554%" stop-color="#ffffff" stop-opacity="1"></stop></linearGradient></defs><defs><linearGradient id="grad2_0" x1="0%" y1="0%" x2="56.3%" y2="100%"><stop offset="14.444444444444446%" stop-color="#fbae3c" stop-opacity="1"></stop><stop offset="85.55555555555554%" stop-color="#fbae3c" stop-opacity="1"></stop></linearGradient></defs><defs><linearGradient id="grad2_1" x1="0%" y1="0%" x2="56.3%" y2="100%"><stop offset="14.444444444444446%" stop-color="#ffb95b" stop-opacity="1"></stop><stop offset="85.55555555555554%" stop-color="#fbae3c" stop-opacity="1"></stop></linearGradient></defs><defs><linearGradient id="grad2_2" x1="0%" y1="0%" x2="56.3%" y2="100%"><stop offset="14.444444444444446%" stop-color="#ffb95b" stop-opacity="1"></stop><stop offset="85.55555555555554%" stop-color="#ffc577" stop-opacity="1"></stop></linearGradient></defs><defs><linearGradient id="grad2_3" x1="0%" y1="0%" x2="56.3%" y2="100%"><stop offset="14.444444444444446%" stop-color="#ffd092" stop-opacity="1"></stop><stop offset="85.55555555555554%" stop-color="#ffc577" stop-opacity="1"></stop></linearGradient></defs><defs><linearGradient id="grad2_4" x1="0%" y1="0%" x2="56.3%" y2="100%"><stop offset="14.444444444444446%" stop-color="#ffd092" stop-opacity="1"></stop><stop offset="85.55555555555554%" stop-color="#ffdcad" stop-opacity="1"></stop></linearGradient></defs><defs><linearGradient id="grad2_5" x1="0%" y1="0%" x2="56.3%" y2="100%"><stop offset="14.444444444444446%" stop-color="#ffe7c8" stop-opacity="1"></stop><stop offset="85.55555555555554%" stop-color="#ffdcad" stop-opacity="1"></stop></linearGradient></defs><defs><linearGradient id="grad2_6" x1="0%" y1="0%" x2="56.3%" y2="100%"><stop offset="14.444444444444446%" stop-color="#ffe7c8" stop-opacity="1"></stop><stop offset="85.55555555555554%" stop-color="#fff3e3" stop-opacity="1"></stop></linearGradient></defs><defs><linearGradient id="grad2_7" x1="0%" y1="0%" x2="56.3%" y2="100%"><stop offset="14.444444444444446%" stop-color="#ffffff" stop-opacity="1"></stop><stop offset="85.55555555555554%" stop-color="#fff3e3" stop-opacity="1"></stop></linearGradient></defs><g transform="translate(960, 0)"><path d="M0 486C-94.4 478.7 -188.9 471.5 -243 420.9C-297.1 370.3 -310.9 276.4 -344.7 199C-378.5 121.6 -432.2 60.8 -486 0L0 0Z" fill="#fff9f1"></path><path d="M0 425.3C-82.6 418.9 -165.3 412.5 -212.6 368.3C-260 324 -272 241.8 -301.6 174.1C-331.1 106.4 -378.2 53.2 -425.2 0L0 0Z" fill="#ffedd6"></path><path d="M0 364.5C-70.8 359.1 -141.7 353.6 -182.2 315.7C-222.8 277.7 -233.2 207.3 -258.5 149.3C-283.8 91.2 -324.2 45.6 -364.5 0L0 0Z" fill="#ffe1ba"></path><path d="M0 303.8C-59 299.2 -118.1 294.7 -151.9 263.1C-185.7 231.4 -194.3 172.7 -215.4 124.4C-236.5 76 -270.1 38 -303.7 0L0 0Z" fill="#ffd69f"></path><path d="M0 243C-47.2 239.4 -94.4 235.7 -121.5 210.4C-148.6 185.1 -155.4 138.2 -172.3 99.5C-189.2 60.8 -216.1 30.4 -243 0L0 0Z" fill="#ffca84"></path><path d="M0 182.3C-35.4 179.5 -70.8 176.8 -91.1 157.8C-111.4 138.9 -116.6 103.6 -129.3 74.6C-141.9 45.6 -162.1 22.8 -182.2 0L0 0Z" fill="#ffbf69"></path><path d="M0 121.5C-23.6 119.7 -47.2 117.9 -60.7 105.2C-74.3 92.6 -77.7 69.1 -86.2 49.8C-94.6 30.4 -108.1 15.2 -121.5 0L0 0Z" fill="#fdb44c"></path><path d="M0 60.8C-11.8 59.8 -23.6 58.9 -30.4 52.6C-37.1 46.3 -38.9 34.5 -43.1 24.9C-47.3 15.2 -54 7.6 -60.7 0L0 0Z" fill="#fbae3c"></path></g><g transform="translate(0, 540)"><path d="M0 -486C81.6 -468.3 163.2 -450.5 238 -412.2C312.8 -373.9 380.7 -315.1 420.9 -243C461.1 -170.9 473.5 -85.4 486 0L0 0Z" fill="#fff9f1"></path><path d="M0 -425.2C71.4 -409.7 142.8 -394.2 208.2 -360.7C273.7 -327.2 333.1 -275.7 368.3 -212.6C403.4 -149.5 414.3 -74.8 425.3 0L0 0Z" fill="#ffedd6"></path><path d="M0 -364.5C61.2 -351.2 122.4 -337.9 178.5 -309.2C234.6 -280.5 285.5 -236.3 315.7 -182.3C345.8 -128.2 355.2 -64.1 364.5 0L0 0Z" fill="#ffe1ba"></path><path d="M0 -303.7C51 -292.7 102 -281.6 148.7 -257.6C195.5 -233.7 237.9 -197 263.1 -151.9C288.2 -106.8 296 -53.4 303.8 0L0 0Z" fill="#ffd69f"></path><path d="M0 -243C40.8 -234.1 81.6 -225.3 119 -206.1C156.4 -187 190.3 -157.6 210.4 -121.5C230.5 -85.4 236.8 -42.7 243 0L0 0Z" fill="#ffca84"></path><path d="M0 -182.2C30.6 -175.6 61.2 -168.9 89.2 -154.6C117.3 -140.2 142.8 -118.2 157.8 -91.1C172.9 -64.1 177.6 -32 182.3 0L0 0Z" fill="#ffbf69"></path><path d="M0 -121.5C20.4 -117.1 40.8 -112.6 59.5 -103.1C78.2 -93.5 95.2 -78.8 105.2 -60.8C115.3 -42.7 118.4 -21.4 121.5 0L0 0Z" fill="#fdb44c"></path><path d="M0 -60.7C10.2 -58.5 20.4 -56.3 29.7 -51.5C39.1 -46.7 47.6 -39.4 52.6 -30.4C57.6 -21.4 59.2 -10.7 60.8 0L0 0Z" fill="#fbae3c"></path></g></svg>