<svg id="visual" viewBox="0 0 900 600" width="900" height="600" xmlns="http://www.w3.org/2000/svg" xmlns:xlink="http://www.w3.org/1999/xlink" version="1.1"><rect x="0" y="0" width="900" height="600" fill="#161618"></rect><defs><linearGradient id="grad1_0" x1="33.3%" y1="0%" x2="100%" y2="100%"><stop offset="20%" stop-color="#0064ff" stop-opacity="1"></stop><stop offset="80%" stop-color="#0064ff" stop-opacity="1"></stop></linearGradient></defs><defs><linearGradient id="grad1_1" x1="33.3%" y1="0%" x2="100%" y2="100%"><stop offset="20%" stop-color="#0064ff" stop-opacity="1"></stop><stop offset="80%" stop-color="#7788ff" stop-opacity="1"></stop></linearGradient></defs><defs><linearGradient id="grad1_2" x1="33.3%" y1="0%" x2="100%" y2="100%"><stop offset="20%" stop-color="#acaeff" stop-opacity="1"></stop><stop offset="80%" stop-color="#7788ff" stop-opacity="1"></stop></linearGradient></defs><defs><linearGradient id="grad1_3" x1="33.3%" y1="0%" x2="100%" y2="100%"><stop offset="20%" stop-color="#acaeff" stop-opacity="1"></stop><stop offset="80%" stop-color="#d8d6ff" stop-opacity="1"></stop></linearGradient></defs><defs><linearGradient id="grad1_4" x1="33.3%" y1="0%" x2="100%" y2="100%"><stop offset="20%" stop-color="#161618" stop-opacity="1"></stop><stop offset="80%" stop-color="#161618" stop-opacity="1"></stop></linearGradient></defs><defs><linearGradient id="grad2_0" x1="0%" y1="0%" x2="66.7%" y2="100%"><stop offset="20%" stop-color="#0064ff" stop-opacity="1"></stop><stop offset="80%" stop-color="#0064ff" stop-opacity="1"></stop></linearGradient></defs><defs><linearGradient id="grad2_1" x1="0%" y1="0%" x2="66.7%" y2="100%"><stop offset="20%" stop-color="#7788ff" stop-opacity="1"></stop><stop offset="80%" stop-color="#0064ff" stop-opacity="1"></stop></linearGradient></defs><defs><linearGradient id="grad2_2" x1="0%" y1="0%" x2="66.7%" y2="100%"><stop offset="20%" stop-color="#7788ff" stop-opacity="1"></stop><stop offset="80%" stop-color="#acaeff" stop-opacity="1"></stop></linearGradient></defs><defs><linearGradient id="grad2_3" x1="0%" y1="0%" x2="66.7%" y2="100%"><stop offset="20%" stop-color="#d8d6ff" stop-opacity="1"></stop><stop offset="80%" stop-color="#acaeff" stop-opacity="1"></stop></linearGradient></defs><defs><linearGradient id="grad2_4" x1="0%" y1="0%" x2="66.7%" y2="100%"><stop offset="20%" stop-color="#d8d6ff" stop-opacity="1"></stop><stop offset="80%" stop-color="#161618" stop-opacity="1"></stop></linearGradient></defs><g transform="translate(900, 0)"><path d="M0 540.8C-95.3 527.1 -190.5 513.3 -270.4 468.4C-350.3 423.4 -414.8 347.3 -457.3 264C-499.8 180.7 -520.3 90.4 -540.8 0L0 0Z" fill="#161618"></path><path d="M0 432.7C-76.2 421.7 -152.4 410.7 -216.3 374.7C-280.2 338.7 -331.8 277.8 -365.8 211.2C-399.8 144.6 -416.2 72.3 -432.7 0L0 0Z" fill="#161618"></path><path d="M0 324.5C-57.2 316.2 -114.3 308 -162.2 281C-210.2 254.1 -248.9 208.4 -274.4 158.4C-299.9 108.4 -312.2 54.2 -324.5 0L0 0Z" fill="#949aff"></path><path d="M0 216.3C-38.1 210.8 -76.2 205.3 -108.2 187.3C-140.1 169.4 -165.9 138.9 -182.9 105.6C-199.9 72.3 -208.1 36.1 -216.3 0L0 0Z" fill="#5475ff"></path><path d="M0 108.2C-19.1 105.4 -38.1 102.7 -54.1 93.7C-70.1 84.7 -83 69.5 -91.5 52.8C-100 36.1 -104.1 18.1 -108.2 0L0 0Z" fill="#0064ff"></path></g><g transform="translate(0, 600)"><path d="M0 -540.8C96.5 -527.8 193.1 -514.8 270.4 -468.4C347.7 -422 405.9 -342.1 447.7 -258.5C489.6 -174.9 515.2 -87.4 540.8 0L0 0Z" fill="#161618"></path><path d="M0 -432.7C77.2 -422.3 154.5 -411.8 216.3 -374.7C278.2 -337.6 324.7 -273.7 358.2 -206.8C391.7 -139.9 412.2 -69.9 432.7 0L0 0Z" fill="#161618"></path><path d="M0 -324.5C57.9 -316.7 115.9 -308.9 162.2 -281C208.6 -253.2 243.5 -205.3 268.6 -155.1C293.8 -104.9 309.1 -52.5 324.5 0L0 0Z" fill="#949aff"></path><path d="M0 -216.3C38.6 -211.1 77.2 -205.9 108.2 -187.3C139.1 -168.8 162.3 -136.9 179.1 -103.4C195.8 -69.9 206.1 -35 216.3 0L0 0Z" fill="#5475ff"></path><path d="M0 -108.2C19.3 -105.6 38.6 -103 54.1 -93.7C69.5 -84.4 81.2 -68.4 89.5 -51.7C97.9 -35 103 -17.5 108.2 0L0 0Z" fill="#0064ff"></path></g></svg>