<svg id="visual" viewBox="0 0 900 600" width="900" height="600" xmlns="http://www.w3.org/2000/svg" xmlns:xlink="http://www.w3.org/1999/xlink" version="1.1"><rect x="0" y="0" width="900" height="600" fill="#161618"></rect><path d="M0 322L11.5 320.2C23 318.3 46 314.7 69 307.5C92 300.3 115 289.7 138.2 289.5C161.3 289.3 184.7 299.7 207.8 316.3C231 333 254 356 277 361.8C300 367.7 323 356.3 346 339.2C369 322 392 299 415.2 297.5C438.3 296 461.7 316 484.8 325.8C508 335.7 531 335.3 554 337.3C577 339.3 600 343.7 623 332.7C646 321.7 669 295.3 692.2 289.8C715.3 284.3 738.7 299.7 761.8 303.8C785 308 808 301 831 304.3C854 307.7 877 321.3 888.5 328.2L900 335L900 601L888.5 601C877 601 854 601 831 601C808 601 785 601 761.8 601C738.7 601 715.3 601 692.2 601C669 601 646 601 623 601C600 601 577 601 554 601C531 601 508 601 484.8 601C461.7 601 438.3 601 415.2 601C392 601 369 601 346 601C323 601 300 601 277 601C254 601 231 601 207.8 601C184.7 601 161.3 601 138.2 601C115 601 92 601 69 601C46 601 23 601 11.5 601L0 601Z" fill="#3a5adb"></path><path d="M0 368L11.5 359.2C23 350.3 46 332.7 69 324.5C92 316.3 115 317.7 138.2 333.3C161.3 349 184.7 379 207.8 376C231 373 254 337 277 338C300 339 323 377 346 391.7C369 406.3 392 397.7 415.2 386.8C438.3 376 461.7 363 484.8 357.3C508 351.7 531 353.3 554 351.7C577 350 600 345 623 348.2C646 351.3 669 362.7 692.2 365.7C715.3 368.7 738.7 363.3 761.8 358.5C785 353.7 808 349.3 831 340.3C854 331.3 877 317.7 888.5 310.8L900 304L900 601L888.5 601C877 601 854 601 831 601C808 601 785 601 761.8 601C738.7 601 715.3 601 692.2 601C669 601 646 601 623 601C600 601 577 601 554 601C531 601 508 601 484.8 601C461.7 601 438.3 601 415.2 601C392 601 369 601 346 601C323 601 300 601 277 601C254 601 231 601 207.8 601C184.7 601 161.3 601 138.2 601C115 601 92 601 69 601C46 601 23 601 11.5 601L0 601Z" fill="#3452c6"></path><path d="M0 378L11.5 375.5C23 373 46 368 69 369.3C92 370.7 115 378.3 138.2 388.3C161.3 398.3 184.7 410.7 207.8 416.8C231 423 254 423 277 414.7C300 406.3 323 389.7 346 378.2C369 366.7 392 360.3 415.2 364.2C438.3 368 461.7 382 484.8 385.7C508 389.3 531 382.7 554 381.5C577 380.3 600 384.7 623 395.3C646 406 669 423 692.2 421.8C715.3 420.7 738.7 401.3 761.8 396C785 390.7 808 399.3 831 400.3C854 401.3 877 394.7 888.5 391.3L900 388L900 601L888.5 601C877 601 854 601 831 601C808 601 785 601 761.8 601C738.7 601 715.3 601 692.2 601C669 601 646 601 623 601C600 601 577 601 554 601C531 601 508 601 484.8 601C461.7 601 438.3 601 415.2 601C392 601 369 601 346 601C323 601 300 601 277 601C254 601 231 601 207.8 601C184.7 601 161.3 601 138.2 601C115 601 92 601 69 601C46 601 23 601 11.5 601L0 601Z" fill="#2f49b1"></path><path d="M0 410L11.5 423C23 436 46 462 69 472.2C92 482.3 115 476.7 138.2 470C161.3 463.3 184.7 455.7 207.8 448C231 440.3 254 432.7 277 426.3C300 420 323 415 346 419C369 423 392 436 415.2 444C438.3 452 461.7 455 484.8 458.2C508 461.3 531 464.7 554 463C577 461.3 600 454.7 623 449C646 443.3 669 438.7 692.2 442.5C715.3 446.3 738.7 458.7 761.8 467C785 475.3 808 479.7 831 471C854 462.3 877 440.7 888.5 429.8L900 419L900 601L888.5 601C877 601 854 601 831 601C808 601 785 601 761.8 601C738.7 601 715.3 601 692.2 601C669 601 646 601 623 601C600 601 577 601 554 601C531 601 508 601 484.8 601C461.7 601 438.3 601 415.2 601C392 601 369 601 346 601C323 601 300 601 277 601C254 601 231 601 207.8 601C184.7 601 161.3 601 138.2 601C115 601 92 601 69 601C46 601 23 601 11.5 601L0 601Z" fill="#29419d"></path><path d="M0 502L11.5 498.2C23 494.3 46 486.7 69 483.5C92 480.3 115 481.7 138.2 480.8C161.3 480 184.7 477 207.8 481.5C231 486 254 498 277 498.3C300 498.7 323 487.3 346 488.3C369 489.3 392 502.7 415.2 506.8C438.3 511 461.7 506 484.8 503.3C508 500.7 531 500.3 554 497.5C577 494.7 600 489.3 623 490.3C646 491.3 669 498.7 692.2 501.5C715.3 504.3 738.7 502.7 761.8 496.2C785 489.7 808 478.3 831 478.2C854 478 877 489 888.5 494.5L900 500L900 601L888.5 601C877 601 854 601 831 601C808 601 785 601 761.8 601C738.7 601 715.3 601 692.2 601C669 601 646 601 623 601C600 601 577 601 554 601C531 601 508 601 484.8 601C461.7 601 438.3 601 415.2 601C392 601 369 601 346 601C323 601 300 601 277 601C254 601 231 601 207.8 601C184.7 601 161.3 601 138.2 601C115 601 92 601 69 601C46 601 23 601 11.5 601L0 601Z" fill="#243889"></path><path d="M0 510L11.5 512.2C23 514.3 46 518.7 69 527.8C92 537 115 551 138.2 552.3C161.3 553.7 184.7 542.3 207.8 536.5C231 530.7 254 530.3 277 531.5C300 532.7 323 535.3 346 535C369 534.7 392 531.3 415.2 530.3C438.3 529.3 461.7 530.7 484.8 533.5C508 536.3 531 540.7 554 545.7C577 550.7 600 556.3 623 550.3C646 544.3 669 526.7 692.2 527.2C715.3 527.7 738.7 546.3 761.8 550.8C785 555.3 808 545.7 831 545.2C854 544.7 877 553.3 888.5 557.7L900 562L900 601L888.5 601C877 601 854 601 831 601C808 601 785 601 761.8 601C738.7 601 715.3 601 692.2 601C669 601 646 601 623 601C600 601 577 601 554 601C531 601 508 601 484.8 601C461.7 601 438.3 601 415.2 601C392 601 369 601 346 601C323 601 300 601 277 601C254 601 231 601 207.8 601C184.7 601 161.3 601 138.2 601C115 601 92 601 69 601C46 601 23 601 11.5 601L0 601Z" fill="#1f3075"></path></svg>