<svg id="visual" viewBox="0 0 960 540" width="960" height="540" xmlns="http://www.w3.org/2000/svg" xmlns:xlink="http://www.w3.org/1999/xlink" version="1.1"><rect x="0" y="0" width="960" height="540" fill="#ffffff"></rect><defs><linearGradient id="grad1_0" x1="43.8%" y1="0%" x2="100%" y2="100%"><stop offset="14.444444444444446%" stop-color="#3a5adb" stop-opacity="1"></stop><stop offset="85.55555555555554%" stop-color="#3a5adb" stop-opacity="1"></stop></linearGradient></defs><defs><linearGradient id="grad1_1" x1="43.8%" y1="0%" x2="100%" y2="100%"><stop offset="14.444444444444446%" stop-color="#3a5adb" stop-opacity="1"></stop><stop offset="85.55555555555554%" stop-color="#646fe1" stop-opacity="1"></stop></linearGradient></defs><defs><linearGradient id="grad1_2" x1="43.8%" y1="0%" x2="100%" y2="100%"><stop offset="14.444444444444446%" stop-color="#8386e7" stop-opacity="1"></stop><stop offset="85.55555555555554%" stop-color="#646fe1" stop-opacity="1"></stop></linearGradient></defs><defs><linearGradient id="grad1_3" x1="43.8%" y1="0%" x2="100%" y2="100%"><stop offset="14.444444444444446%" stop-color="#8386e7" stop-opacity="1"></stop><stop offset="85.55555555555554%" stop-color="#9f9dec" stop-opacity="1"></stop></linearGradient></defs><defs><linearGradient id="grad1_4" x1="43.8%" y1="0%" x2="100%" y2="100%"><stop offset="14.444444444444446%" stop-color="#b8b4f1" stop-opacity="1"></stop><stop offset="85.55555555555554%" stop-color="#9f9dec" stop-opacity="1"></stop></linearGradient></defs><defs><linearGradient id="grad1_5" x1="43.8%" y1="0%" x2="100%" y2="100%"><stop offset="14.444444444444446%" stop-color="#b8b4f1" stop-opacity="1"></stop><stop offset="85.55555555555554%" stop-color="#d0cdf6" stop-opacity="1"></stop></linearGradient></defs><defs><linearGradient id="grad1_6" x1="43.8%" y1="0%" x2="100%" y2="100%"><stop offset="14.444444444444446%" stop-color="#e8e6fb" stop-opacity="1"></stop><stop offset="85.55555555555554%" stop-color="#d0cdf6" stop-opacity="1"></stop></linearGradient></defs><defs><linearGradient id="grad1_7" x1="43.8%" y1="0%" x2="100%" y2="100%"><stop offset="14.444444444444446%" stop-color="#e8e6fb" stop-opacity="1"></stop><stop offset="85.55555555555554%" stop-color="#ffffff" stop-opacity="1"></stop></linearGradient></defs><defs><linearGradient id="grad2_0" x1="0%" y1="0%" x2="56.3%" y2="100%"><stop offset="14.444444444444446%" stop-color="#3a5adb" stop-opacity="1"></stop><stop offset="85.55555555555554%" stop-color="#3a5adb" stop-opacity="1"></stop></linearGradient></defs><defs><linearGradient id="grad2_1" x1="0%" y1="0%" x2="56.3%" y2="100%"><stop offset="14.444444444444446%" stop-color="#646fe1" stop-opacity="1"></stop><stop offset="85.55555555555554%" stop-color="#3a5adb" stop-opacity="1"></stop></linearGradient></defs><defs><linearGradient id="grad2_2" x1="0%" y1="0%" x2="56.3%" y2="100%"><stop offset="14.444444444444446%" stop-color="#646fe1" stop-opacity="1"></stop><stop offset="85.55555555555554%" stop-color="#8386e7" stop-opacity="1"></stop></linearGradient></defs><defs><linearGradient id="grad2_3" x1="0%" y1="0%" x2="56.3%" y2="100%"><stop offset="14.444444444444446%" stop-color="#9f9dec" stop-opacity="1"></stop><stop offset="85.55555555555554%" stop-color="#8386e7" stop-opacity="1"></stop></linearGradient></defs><defs><linearGradient id="grad2_4" x1="0%" y1="0%" x2="56.3%" y2="100%"><stop offset="14.444444444444446%" stop-color="#9f9dec" stop-opacity="1"></stop><stop offset="85.55555555555554%" stop-color="#b8b4f1" stop-opacity="1"></stop></linearGradient></defs><defs><linearGradient id="grad2_5" x1="0%" y1="0%" x2="56.3%" y2="100%"><stop offset="14.444444444444446%" stop-color="#d0cdf6" stop-opacity="1"></stop><stop offset="85.55555555555554%" stop-color="#b8b4f1" stop-opacity="1"></stop></linearGradient></defs><defs><linearGradient id="grad2_6" x1="0%" y1="0%" x2="56.3%" y2="100%"><stop offset="14.444444444444446%" stop-color="#d0cdf6" stop-opacity="1"></stop><stop offset="85.55555555555554%" stop-color="#e8e6fb" stop-opacity="1"></stop></linearGradient></defs><defs><linearGradient id="grad2_7" x1="0%" y1="0%" x2="56.3%" y2="100%"><stop offset="14.444444444444446%" stop-color="#ffffff" stop-opacity="1"></stop><stop offset="85.55555555555554%" stop-color="#e8e6fb" stop-opacity="1"></stop></linearGradient></defs><g transform="translate(960, 0)"><path d="M0 487C-29.6 491.9 -59.3 496.9 -86.7 491.4C-114 486 -139.1 470.2 -168.6 463.3C-198.1 456.4 -231.9 458.4 -256.5 444.3C-281.1 430.1 -296.5 399.8 -316.9 377.7C-337.3 355.5 -362.6 341.6 -383.8 322C-404.9 302.5 -421.9 277.4 -435.6 251.5C-449.4 225.6 -459.9 198.8 -471.7 171.7C-483.5 144.6 -496.5 117.2 -502.3 88.6C-508 59.9 -506.5 29.9 -505 0L0 0Z" fill="#f4f2fd"></path><path d="M0 426.1C-25.9 430.4 -51.9 434.8 -75.8 430C-99.8 425.2 -121.8 411.4 -147.5 405.4C-173.3 399.3 -202.9 401.1 -224.4 388.7C-246 376.4 -259.4 349.8 -277.3 330.5C-295.1 311.1 -317.3 298.9 -335.8 281.8C-354.3 264.7 -369.1 242.8 -381.2 220.1C-393.2 197.4 -402.4 173.9 -412.8 150.2C-423.1 126.5 -434.4 102.6 -439.5 77.5C-444.5 52.4 -443.2 26.2 -441.9 0L0 0Z" fill="#dcd9f8"></path><path d="M0 365.3C-22.2 368.9 -44.5 372.6 -65 368.6C-85.5 364.5 -104.4 352.6 -126.5 347.5C-148.6 342.3 -173.9 343.8 -192.4 333.2C-210.8 322.6 -222.4 299.9 -237.7 283.2C-253 266.6 -272 256.2 -287.8 241.5C-303.7 226.9 -316.4 208.1 -326.7 188.6C-337 169.2 -345 149.1 -353.8 128.8C-362.6 108.5 -372.4 87.9 -376.7 66.4C-381 44.9 -379.9 22.5 -378.7 0L0 0Z" fill="#c4c0f4"></path><path d="M0 304.4C-18.5 307.5 -37 310.5 -54.2 307.1C-71.3 303.7 -87 293.8 -105.4 289.5C-123.8 285.2 -144.9 286.5 -160.3 277.7C-175.7 268.8 -185.3 249.9 -198.1 236C-210.8 222.2 -226.7 213.5 -239.9 201.3C-253.1 189.1 -263.7 173.4 -272.3 157.2C-280.9 141 -287.5 124.2 -294.8 107.3C-302.2 90.4 -310.3 73.3 -313.9 55.4C-317.5 37.4 -316.6 18.7 -315.6 0L0 0Z" fill="#aca8ef"></path><path d="M0 243.5C-14.8 246 -29.6 248.4 -43.3 245.7C-57 243 -69.6 235.1 -84.3 231.6C-99 228.2 -115.9 229.2 -128.2 222.1C-140.6 215.1 -148.3 199.9 -158.4 188.8C-168.6 177.8 -181.3 170.8 -191.9 161C-202.5 151.3 -210.9 138.7 -217.8 125.8C-224.7 112.8 -230 99.4 -235.9 85.8C-241.8 72.3 -248.3 58.6 -251.1 44.3C-254 29.9 -253.2 15 -252.5 0L0 0Z" fill="#9191e9"></path><path d="M0 182.6C-11.1 184.5 -22.2 186.3 -32.5 184.3C-42.8 182.2 -52.2 176.3 -63.2 173.7C-74.3 171.1 -87 171.9 -96.2 166.6C-105.4 161.3 -111.2 149.9 -118.8 141.6C-126.5 133.3 -136 128.1 -143.9 120.8C-151.9 113.4 -158.2 104 -163.4 94.3C-168.5 84.6 -172.5 74.5 -176.9 64.4C-181.3 54.2 -186.2 44 -188.3 33.2C-190.5 22.5 -189.9 11.2 -189.4 0L0 0Z" fill="#747ae4"></path><path d="M0 121.8C-7.4 123 -14.8 124.2 -21.7 122.9C-28.5 121.5 -34.8 117.5 -42.2 115.8C-49.5 114.1 -58 114.6 -64.1 111.1C-70.3 107.5 -74.1 100 -79.2 94.4C-84.3 88.9 -90.7 85.4 -95.9 80.5C-101.2 75.6 -105.5 69.4 -108.9 62.9C-112.3 56.4 -115 49.7 -117.9 42.9C-120.9 36.2 -124.1 29.3 -125.6 22.1C-127 15 -126.6 7.5 -126.2 0L0 0Z" fill="#5165de"></path><path d="M0 60.9C-3.7 61.5 -7.4 62.1 -10.8 61.4C-14.3 60.7 -17.4 58.8 -21.1 57.9C-24.8 57 -29 57.3 -32.1 55.5C-35.1 53.8 -37.1 50 -39.6 47.2C-42.2 44.4 -45.3 42.7 -48 40.3C-50.6 37.8 -52.7 34.7 -54.5 31.4C-56.2 28.2 -57.5 24.8 -59 21.5C-60.4 18.1 -62.1 14.7 -62.8 11.1C-63.5 7.5 -63.3 3.7 -63.1 0L0 0Z" fill="#3a5adb"></path></g><g transform="translate(0, 540)"><path d="M0 -490C29.2 -495.2 58.4 -500.4 88.2 -500.3C118 -500.2 148.4 -494.8 175.5 -482.1C202.5 -469.3 226.3 -449.3 248 -429.5C269.7 -409.8 289.3 -390.3 314.3 -374.6C339.4 -358.9 369.9 -346.9 386.9 -324.6C403.8 -302.3 407 -269.7 422.6 -244C438.2 -218.3 466.1 -199.6 478.3 -174.1C490.5 -148.6 487.1 -116.3 488.5 -86.1C489.8 -56 495.9 -28 502 0L0 0Z" fill="#f4f2fd"></path><path d="M0 -428.7C25.6 -433.3 51.1 -437.8 77.2 -437.7C103.3 -437.7 129.8 -432.9 153.5 -421.8C177.2 -410.7 198 -393.1 217 -375.9C236 -358.6 253.1 -341.5 275 -327.8C297 -314 323.7 -303.5 338.5 -284C353.3 -264.5 356.2 -236 369.8 -213.5C383.4 -191 407.8 -174.7 418.5 -152.3C429.2 -130 426.2 -101.7 427.4 -75.4C428.6 -49 433.9 -24.5 439.3 0L0 0Z" fill="#dcd9f8"></path><path d="M0 -367.5C21.9 -371.4 43.8 -375.3 66.2 -375.2C88.5 -375.1 111.3 -371.1 131.6 -361.5C151.9 -352 169.7 -337 186 -322.2C202.3 -307.3 216.9 -292.7 235.7 -280.9C254.5 -269.2 277.5 -260.2 290.1 -243.5C302.8 -226.7 305.3 -202.3 317 -183C328.6 -163.7 349.6 -149.7 358.7 -130.6C367.9 -111.4 365.3 -87.2 366.3 -64.6C367.4 -42 371.9 -21 376.5 0L0 0Z" fill="#c4c0f4"></path><path d="M0 -306.2C18.3 -309.5 36.5 -312.7 55.1 -312.7C73.8 -312.6 92.7 -309.2 109.7 -301.3C126.6 -293.3 141.4 -280.8 155 -268.5C168.6 -256.1 180.8 -243.9 196.5 -234.1C212.1 -224.3 231.2 -216.8 241.8 -202.9C252.4 -188.9 254.4 -168.5 264.1 -152.5C273.9 -136.5 291.3 -124.8 298.9 -108.8C306.6 -92.9 304.5 -72.7 305.3 -53.8C306.1 -35 309.9 -17.5 313.8 0L0 0Z" fill="#aca8ef"></path><path d="M0 -245C14.6 -247.6 29.2 -250.2 44.1 -250.1C59 -250.1 74.2 -247.4 87.7 -241C101.3 -234.7 113.2 -224.7 124 -214.8C134.8 -204.9 144.6 -195.2 157.2 -187.3C169.7 -179.4 185 -173.5 193.4 -162.3C201.9 -151.2 203.5 -134.8 211.3 -122C219.1 -109.2 233 -99.8 239.2 -87C245.3 -74.3 243.6 -58.1 244.2 -43.1C244.9 -28 248 -14 251 0L0 0Z" fill="#9191e9"></path><path d="M0 -183.7C11 -185.7 21.9 -187.6 33.1 -187.6C44.3 -187.6 55.6 -185.5 65.8 -180.8C76 -176 84.9 -168.5 93 -161.1C101.1 -153.7 108.5 -146.4 117.9 -140.5C127.3 -134.6 138.7 -130.1 145.1 -121.7C151.4 -113.4 152.6 -101.1 158.5 -91.5C164.3 -81.9 174.8 -74.9 179.4 -65.3C184 -55.7 182.7 -43.6 183.2 -32.3C183.7 -21 186 -10.5 188.3 0L0 0Z" fill="#747ae4"></path><path d="M0 -122.5C7.3 -123.8 14.6 -125.1 22.1 -125.1C29.5 -125 37.1 -123.7 43.9 -120.5C50.6 -117.3 56.6 -112.3 62 -107.4C67.4 -102.4 72.3 -97.6 78.6 -93.6C84.8 -89.7 92.5 -86.7 96.7 -81.2C100.9 -75.6 101.8 -67.4 105.7 -61C109.5 -54.6 116.5 -49.9 119.6 -43.5C122.6 -37.1 121.8 -29.1 122.1 -21.5C122.5 -14 124 -7 125.5 0L0 0Z" fill="#5165de"></path><path d="M0 -61.2C3.7 -61.9 7.3 -62.5 11 -62.5C14.8 -62.5 18.5 -61.8 21.9 -60.3C25.3 -58.7 28.3 -56.2 31 -53.7C33.7 -51.2 36.2 -48.8 39.3 -46.8C42.4 -44.9 46.2 -43.4 48.4 -40.6C50.5 -37.8 50.9 -33.7 52.8 -30.5C54.8 -27.3 58.3 -25 59.8 -21.8C61.3 -18.6 60.9 -14.5 61.1 -10.8C61.2 -7 62 -3.5 62.8 0L0 0Z" fill="#3a5adb"></path></g></svg>